<svg width="55" height="56" viewBox="0 0 55 56" fill="none" xmlns="http://www.w3.org/2000/svg">
<g id="Group 8">
<rect id="Rectangle 210" x="2.13528" y="23.0352" width="52.3647" height="32.4648" fill="#E9EBE8" stroke="#24331C"/>
<rect id="Rectangle 219" x="20.6941" y="33.1831" width="15.2471" height="12.169" rx="5" fill="#24331C"/>
<path id="Vector 6" d="M1.85017 21.0953L0.466455 21.6744L1.30731 24.5542L2.69103 23.9751L1.85017 21.0953ZM2.69103 23.9751L51.7607 3.43987L50.9198 0.560122L1.85017 21.0953L2.69103 23.9751Z" fill="#24331C"/>
<path id="Polygon 1" d="M31.5746 38.445C32.1498 38.8426 32.1498 39.6926 31.5746 40.0902L27.6627 42.7941C26.9994 43.2525 26.0941 42.7778 26.0941 41.9715V36.5638C26.0941 35.7574 26.9994 35.2827 27.6627 35.7411L31.5746 38.445Z" fill="#D3D6D2"/>
<rect id="Rectangle 211" x="1" y="20.2535" width="4.44706" height="3.80282" fill="#D3D6D2"/>
<ellipse id="Ellipse 14" cx="2.58825" cy="21.3944" rx="0.317647" ry="0.380282" fill="#667060"/>
<ellipse id="Ellipse 15" cx="2.58825" cy="22.9155" rx="0.317647" ry="0.380282" fill="#667060"/>
<ellipse id="Ellipse 16" cx="3.85882" cy="22.9155" rx="0.317647" ry="0.380282" fill="#667060"/>
<path id="Rectangle 212" d="M15.6118 15.6901L17.5176 14.9296V17.5915L15.6118 18.3521V15.6901Z" fill="#7C8577"/>
<path id="Rectangle 218" d="M9.8941 17.9718L11.8 17.2113V19.8732L9.8941 20.6338V17.9718Z" fill="#7C8577"/>
<path id="Rectangle 213" d="M20.6941 13.4085L22.6 12.6479V15.3099L20.6941 16.0704V13.4085Z" fill="#7C8577"/>
<path id="Rectangle 214" d="M26.4118 11.1268L28.3177 10.3662V13.0282L26.4118 13.7887V11.1268Z" fill="#7C8577"/>
<path id="Rectangle 215" d="M33.4 8.08451L35.3059 7.32394V9.98592L33.4 10.7465V8.08451Z" fill="#7C8577"/>
<path id="Rectangle 216" d="M39.1176 5.80281L41.0235 5.04225V7.70422L39.1176 8.46479V5.80281Z" fill="#7C8577"/>
<path id="Rectangle 217" d="M46.1059 2.76056L48.0118 2V4.66197L46.1059 5.42254V2.76056Z" fill="#7C8577"/>
<path id="Vector 7" d="M2.2706 30.1408H55" stroke="#24331C"/>
<path id="Vector 8" d="M1.63528 48.3944H54.3647" stroke="#24331C"/>
<path id="Vector 9" d="M10.2118 22.9155V30.1408" stroke="#24331C" stroke-width="3"/>
<path id="Vector 11" d="M46.1059 22.5352V29.7606" stroke="#24331C" stroke-width="3"/>
<path id="Vector 10" d="M10.2118 48.7746V56" stroke="#24331C" stroke-width="3"/>
<path id="Vector 12" d="M46.1059 48.3944V55.6197" stroke="#24331C" stroke-width="3"/>
</g>
</svg>
