<svg width="54" height="54" viewBox="0 0 54 54" fill="none" xmlns="http://www.w3.org/2000/svg">
<g id="Controller">
<path id="Union" d="M22.0229 42.1774H21.633L21.538 42.5556C19.891 49.1114 15.8784 53.5 11.4052 53.5C8.48506 53.5 5.77076 51.6462 3.76187 48.5013C1.75663 45.3621 0.5 40.9949 0.5 36.1452C0.5 31.2954 1.75663 26.9283 3.76187 23.789C5.77076 20.6441 8.48506 18.7903 11.4052 18.7903C11.4777 18.7903 11.5501 18.7915 11.6223 18.7937L12.1379 18.8099V18.7903H41.3966V18.8727L41.9436 18.821C42.159 18.8007 42.3761 18.7903 42.5948 18.7903C45.5149 18.7903 48.2292 20.6441 50.2381 23.789C52.2434 26.9283 53.5 31.2954 53.5 36.1452C53.5 40.9949 52.2434 45.3621 50.2381 48.5013C48.2292 51.6462 45.5149 53.5 42.5948 53.5C38.1216 53.5 34.109 49.1114 32.462 42.5556L32.367 42.1774H31.9771H22.0229Z" fill="#D3D6D2" stroke="#505C49"/>
<g id="Buttons">
<ellipse id="Ellipse 7" cx="42.8276" cy="42.6774" rx="1.86207" ry="3.48387" fill="#7C8577"/>
<ellipse id="Ellipse 8" cx="42.8276" cy="29.6129" rx="1.86207" ry="3.48387" fill="#7C8577"/>
<ellipse id="Ellipse 9" cx="47.0172" cy="35.7097" rx="1.86207" ry="3.48387" fill="#7C8577"/>
<ellipse id="Ellipse 10" cx="38.6379" cy="35.7097" rx="1.86207" ry="3.48387" fill="#7C8577"/>
</g>
<g id="Dpad">
<rect id="Rectangle 203" x="10.0086" y="29.6129" width="1.86207" height="13.0645" fill="#7C8577"/>
<rect id="Rectangle 204" x="7.44828" y="37.8871" width="3.48387" height="6.98276" transform="rotate(-90 7.44828 37.8871)" fill="#7C8577"/>
</g>
<path id="cord" d="M26.069 0H27.931V15.2419L28.3966 15.6774V18.2903H25.6034V15.6774L26.069 15.2419V0Z" fill="#24331C"/>
<g id="Start and select">
<rect id="Rectangle 206" x="29.3276" y="25.2581" width="3.72414" height="1.74194" rx="0.870968" fill="#0B0F08"/>
<rect id="Rectangle 207" x="20.9483" y="25.2581" width="3.72414" height="1.74194" rx="0.870968" fill="#0B0F08"/>
</g>
<rect id="power" x="26.069" y="28.7419" width="1.86207" height="2.6129" fill="#7C8577"/>
</g>
</svg>
