<svg width="54" height="54" viewBox="0 0 54 54" fill="none" xmlns="http://www.w3.org/2000/svg">
<g id="phones">
<g id="phones_2">
<rect id="Rectangle 202" x="53.5" y="23.6429" width="29.8571" height="53" rx="5.5" transform="rotate(90 53.5 23.6429)" fill="#D3D6D2" stroke="#24331C"/>
<rect id="Rectangle 191" x="0.5" y="0.5" width="29.8571" height="53" rx="5.5" fill="#FCFCFC" stroke="#24331C"/>
<rect id="Rectangle 209" x="39.6648" y="26.0165" width="9.68132" height="6.71428" rx="1.5" stroke="#24331C"/>
<path id="Start" d="M17.8956 48.0659C17.8956 49.4284 16.7911 50.533 15.4286 50.533C14.0661 50.533 12.9615 49.4284 12.9615 48.0659C12.9615 46.7034 14.0661 45.5989 15.4286 45.5989C16.7911 45.5989 17.8956 46.7034 17.8956 48.0659Z" stroke="#24331C"/>
<path id="Vector 3" d="M18.3956 6.52747C18.8703 6.52747 22.945 6.52747 24.9231 6.52747" stroke="#24331C"/>
<path id="Vector 4" d="M18.3956 8.30769C18.8703 8.30769 22.945 8.30769 24.9231 8.30769" stroke="#24331C"/>
<path id="Vector 5" d="M18.3956 10.0879C18.8703 10.0879 22.945 10.0879 24.9231 10.0879" stroke="#24331C"/>
</g>
<rect id="UI" x="5.93407" y="5.34066" width="10.6813" height="5.93407" rx="2" fill="#A7ADA4"/>
<g id="icons">
<rect id="Rectangle 196" x="4.74725" y="21.956" width="8.30769" height="7.71428" rx="2" fill="#7C8577"/>
<rect id="Rectangle 198" x="4.74725" y="31.4505" width="8.30769" height="7.71428" rx="2" fill="#7C8577"/>
<rect id="Rectangle 197" x="17.8022" y="21.956" width="8.30769" height="7.71428" rx="2" fill="#7C8577"/>
<rect id="Rectangle 199" x="17.8022" y="31.4505" width="8.30769" height="7.71428" rx="2" fill="#7C8577"/>
</g>
<g id="buttons">
<ellipse id="Ellipse 2" cx="8.90109" cy="16.6154" rx="1.18681" ry="1.18681" fill="#92998E"/>
<ellipse id="Ellipse 3" cx="15.4286" cy="16.6154" rx="1.18681" ry="1.18681" fill="#92998E"/>
<ellipse id="Ellipse 4" cx="21.956" cy="16.6154" rx="1.18681" ry="1.18681" fill="#92998E"/>
</g>
<g id="camera">
<path id="Ellipse 11" d="M45.4423 27.8901C45.4423 28.4075 45.0229 28.8269 44.5055 28.8269C43.9881 28.8269 43.5687 28.4075 43.5687 27.8901C43.5687 27.3727 43.9881 26.9533 44.5055 26.9533C45.0229 26.9533 45.4423 27.3727 45.4423 27.8901Z" fill="#667060" stroke="#A7ADA4" stroke-width="0.5"/>
<path id="Ellipse 13" d="M47.8159 30.2637C47.8159 30.7811 47.3965 31.2005 46.8791 31.2005C46.3617 31.2005 45.9423 30.7811 45.9423 30.2637C45.9423 29.7463 46.3617 29.3269 46.8791 29.3269C47.3965 29.3269 47.8159 29.7463 47.8159 30.2637Z" fill="#667060" stroke="#A7ADA4" stroke-width="0.5"/>
<path id="Ellipse 12" d="M43.0687 30.2637C43.0687 30.7811 42.6493 31.2005 42.1319 31.2005C41.6145 31.2005 41.1951 30.7811 41.1951 30.2637C41.1951 29.7463 41.6145 29.3269 42.1319 29.3269C42.6493 29.3269 43.0687 29.7463 43.0687 30.2637Z" fill="#667060" stroke="#A7ADA4" stroke-width="0.5"/>
</g>
</g>
</svg>
