<svg width="54" height="54" viewBox="0 0 54 54" fill="none" xmlns="http://www.w3.org/2000/svg">
<g id="webDesign">
<g id="Group 6">
<g id="Group 4">
<path id="Rectangle 186" fill-rule="evenodd" clip-rule="evenodd" d="M54 2C54 0.89543 53.1046 0 52 0H33.2C32.0954 0 31.2 0.895432 31.2 2V4.90909H44.4C45.3 5.01136 47.4 5.64545 48.6 7.36364C49.8 9.08182 49.5 10.7386 49.8 11.3523L49.5 31.9091C49.5 32.7273 48.72 34.425 46.8 35.8977C44.8953 37.3587 44.4801 36.4599 42.6 37.125C42.0801 36.4599 41.2953 37.125 40.8 37.125H31.2V44.7955H54V2Z" fill="#667060"/>
<g id="Group 2">
<rect id="Rectangle 187" x="39" y="1.84091" width="10.2" height="1.22727" fill="#040503"/>
<rect id="Rectangle 189" x="36.6" y="1.84091" width="1.8" height="1.22727" fill="#040503"/>
</g>
<g id="Group 3">
<rect id="Rectangle 188" x="39" y="4.29546" width="10.2" height="1.22727" fill="#0B0F08"/>
<rect id="Rectangle 190" x="36.6" y="4.29546" width="1.8" height="1.22727" fill="#0B0F08"/>
</g>
</g>
<g id="Group 5">
<rect id="Rectangle 1" x="1" y="5.90909" width="47.8" height="30.5227" rx="5" stroke="#24331C" stroke-width="2"/>
<rect id="Rectangle 2" x="2.89999" y="7.86364" width="44" height="26.6136" rx="3.5" stroke="#24331C"/>
<path id="Union" fill-rule="evenodd" clip-rule="evenodd" d="M19.4 36.8182V44.1818C19.4 44.7341 19.8477 45.1818 20.4 45.1818C20.9523 45.1818 21.4 44.7341 21.4 44.1818V36.8182H19.4ZM28.4 36.8182V44.1818C28.4 44.7341 28.8477 45.1818 29.4 45.1818C29.9523 45.1818 30.4 44.7341 30.4 44.1818V36.8182H28.4Z" fill="#24331C"/>
<path id="&#60;html&#62; &#60;h1&#62; Web Dev &#60;/h1&#62; &#60;/html&#62;" d="M20.2017 16.4886V16.375L21.1165 15.9091V16.0909L20.4148 16.429L20.4205 16.4176V16.446L20.4148 16.4347L21.1165 16.7727V16.9545L20.2017 16.4886ZM21.6394 16.3438V17H21.4718V15.5455H21.6394V16.0795H21.6536C21.6792 16.0232 21.7175 15.9785 21.7686 15.9453C21.8203 15.9117 21.8889 15.8949 21.9746 15.8949C22.0489 15.8949 22.1141 15.9098 22.1699 15.9396C22.2258 15.969 22.2691 16.0142 22.2999 16.0753C22.3311 16.1359 22.3468 16.2131 22.3468 16.3068V17H22.1792V16.3182C22.1792 16.2315 22.1567 16.1645 22.1117 16.1172C22.0672 16.0694 22.0054 16.0455 21.9263 16.0455C21.8714 16.0455 21.8221 16.0571 21.7786 16.0803C21.7355 16.1035 21.7014 16.1373 21.6763 16.1818C21.6517 16.2263 21.6394 16.2803 21.6394 16.3438ZM23.1278 15.9091V16.0511H22.5625V15.9091H23.1278ZM22.7273 15.6477H22.8949V16.6875C22.8949 16.7348 22.9018 16.7704 22.9155 16.794C22.9297 16.8172 22.9477 16.8329 22.9695 16.8409C22.9917 16.8485 23.0152 16.8523 23.0398 16.8523C23.0582 16.8523 23.0734 16.8513 23.0852 16.8494C23.0971 16.8471 23.1065 16.8452 23.1136 16.8438L23.1477 16.9943C23.1364 16.9986 23.1205 17.0028 23.1001 17.0071C23.0798 17.0118 23.054 17.0142 23.0227 17.0142C22.9754 17.0142 22.929 17.004 22.8835 16.9837C22.8385 16.9633 22.8011 16.9323 22.7713 16.8906C22.742 16.849 22.7273 16.7964 22.7273 16.733V15.6477ZM23.38 17V15.9091H23.5419V16.0795H23.5561C23.5788 16.0213 23.6155 15.9761 23.6662 15.9439C23.7169 15.9112 23.7777 15.8949 23.8487 15.8949C23.9207 15.8949 23.9806 15.9112 24.0284 15.9439C24.0767 15.9761 24.1143 16.0213 24.1413 16.0795H24.1527C24.1806 16.0232 24.2225 15.9785 24.2784 15.9453C24.3343 15.9117 24.4013 15.8949 24.4794 15.8949C24.5769 15.8949 24.6567 15.9254 24.7188 15.9865C24.7808 16.0471 24.8118 16.1416 24.8118 16.2699V17H24.6442V16.2699C24.6442 16.1894 24.6222 16.1319 24.5781 16.0973C24.5341 16.0627 24.4822 16.0455 24.4226 16.0455C24.3459 16.0455 24.2865 16.0687 24.2443 16.1151C24.2022 16.161 24.1811 16.2192 24.1811 16.2898V17H24.0107V16.2528C24.0107 16.1908 23.9905 16.1409 23.9503 16.103C23.91 16.0646 23.8582 16.0455 23.7947 16.0455C23.7512 16.0455 23.7105 16.0571 23.6726 16.0803C23.6352 16.1035 23.6049 16.1357 23.5817 16.1768C23.5589 16.2176 23.5476 16.2647 23.5476 16.3182V17H23.38ZM25.2859 15.5455V17H25.1183V15.5455H25.2859ZM26.5559 16.4886L25.6412 16.9545V16.7727L26.3429 16.4347L26.3372 16.446V16.4176L26.3429 16.429L25.6412 16.0909V15.9091L26.5559 16.375V16.4886ZM20.2017 18.4886V18.375L21.1165 17.9091V18.0909L20.4148 18.429L20.4205 18.4176V18.446L20.4148 18.4347L21.1165 18.7727V18.9545L20.2017 18.4886ZM21.6394 18.3438V19H21.4718V17.5455H21.6394V18.0795H21.6536C21.6792 18.0232 21.7175 17.9785 21.7686 17.9453C21.8203 17.9117 21.8889 17.8949 21.9746 17.8949C22.0489 17.8949 22.1141 17.9098 22.1699 17.9396C22.2258 17.969 22.2691 18.0142 22.2999 18.0753C22.3311 18.1359 22.3468 18.2131 22.3468 18.3068V19H22.1792V18.3182C22.1792 18.2315 22.1567 18.1645 22.1117 18.1172C22.0672 18.0694 22.0054 18.0455 21.9263 18.0455C21.8714 18.0455 21.8221 18.0571 21.7786 18.0803C21.7355 18.1035 21.7014 18.1373 21.6763 18.1818C21.6517 18.2263 21.6394 18.2803 21.6394 18.3438ZM23.0819 17.5455V19H22.9057V17.7301H22.8972L22.5421 17.9659V17.7869L22.9057 17.5455H23.0819ZM24.4661 18.3523L23.5513 18.8182V18.6364L24.253 18.2983L24.2473 18.3097V18.2812L24.253 18.2926L23.5513 17.9545V17.7727L24.4661 18.2386V18.3523ZM23.2528 21L22.8551 19.5455H23.0341L23.3381 20.7301H23.3523L23.6619 19.5455H23.8608L24.1705 20.7301H24.1847L24.4886 19.5455H24.6676L24.2699 21H24.0881L23.767 19.8409H23.7557L23.4347 21H23.2528ZM25.2202 21.0227C25.1151 21.0227 25.0244 20.9995 24.9482 20.9531C24.8724 20.9062 24.8139 20.8409 24.7727 20.7571C24.732 20.6728 24.7116 20.5748 24.7116 20.4631C24.7116 20.3513 24.732 20.2528 24.7727 20.1676C24.8139 20.0819 24.8712 20.0152 24.9446 19.9673C25.0185 19.919 25.1046 19.8949 25.2031 19.8949C25.2599 19.8949 25.3161 19.9044 25.3714 19.9233C25.4268 19.9422 25.4773 19.973 25.5227 20.0156C25.5682 20.0578 25.6044 20.1136 25.6314 20.1832C25.6584 20.2528 25.6719 20.3385 25.6719 20.4403V20.5114H24.831V20.3665H25.5014C25.5014 20.3049 25.4891 20.25 25.4645 20.2017C25.4403 20.1534 25.4058 20.1153 25.3608 20.0874C25.3163 20.0594 25.2637 20.0455 25.2031 20.0455C25.1364 20.0455 25.0786 20.062 25.0298 20.0952C24.9815 20.1278 24.9444 20.1705 24.9183 20.223C24.8923 20.2756 24.8793 20.3319 24.8793 20.392V20.4886C24.8793 20.571 24.8935 20.6409 24.9219 20.6982C24.9508 20.755 24.9908 20.7983 25.0419 20.8281C25.093 20.8575 25.1525 20.8722 25.2202 20.8722C25.2642 20.8722 25.304 20.866 25.3395 20.8537C25.3755 20.8409 25.4065 20.822 25.4325 20.7969C25.4586 20.7713 25.4787 20.7396 25.4929 20.7017L25.6548 20.7472C25.6378 20.8021 25.6091 20.8504 25.5689 20.892C25.5286 20.9332 25.4789 20.9654 25.4197 20.9886C25.3606 21.0114 25.294 21.0227 25.2202 21.0227ZM25.9496 21V19.5455H26.1172V20.0824H26.1314C26.1437 20.0634 26.1607 20.0393 26.1825 20.0099C26.2048 19.9801 26.2365 19.9536 26.2777 19.9304C26.3194 19.9067 26.3757 19.8949 26.4467 19.8949C26.5386 19.8949 26.6196 19.9179 26.6896 19.9638C26.7597 20.0097 26.8144 20.0748 26.8537 20.1591C26.893 20.2434 26.9126 20.3428 26.9126 20.4574C26.9126 20.5729 26.893 20.6731 26.8537 20.7578C26.8144 20.8421 26.7599 20.9074 26.6903 20.9538C26.6207 20.9998 26.5405 21.0227 26.4496 21.0227C26.3795 21.0227 26.3234 21.0111 26.2812 20.9879C26.2391 20.9643 26.2067 20.9375 26.1839 20.9077C26.1612 20.8774 26.1437 20.8523 26.1314 20.8324H26.1115V21H25.9496ZM26.1143 20.4545C26.1143 20.5369 26.1264 20.6096 26.1506 20.6726C26.1747 20.7351 26.21 20.7841 26.2564 20.8196C26.3028 20.8546 26.3596 20.8722 26.4268 20.8722C26.4969 20.8722 26.5554 20.8537 26.6023 20.8168C26.6496 20.7794 26.6851 20.7292 26.7088 20.6662C26.733 20.6027 26.745 20.5322 26.745 20.4545C26.745 20.3778 26.7332 20.3087 26.7095 20.2472C26.6863 20.1851 26.651 20.1361 26.6037 20.1001C26.5568 20.0637 26.4979 20.0455 26.4268 20.0455C26.3587 20.0455 26.3014 20.0627 26.255 20.0973C26.2086 20.1314 26.1735 20.1792 26.1499 20.2408C26.1262 20.3018 26.1143 20.3731 26.1143 20.4545ZM28.2031 21H27.7543V19.5455H28.223C28.3641 19.5455 28.4848 19.5746 28.5852 19.6328C28.6856 19.6906 28.7625 19.7737 28.8161 19.8821C28.8696 19.9901 28.8963 20.1193 28.8963 20.2699C28.8963 20.4214 28.8693 20.5518 28.8153 20.6612C28.7614 20.7701 28.6828 20.8539 28.5795 20.9126C28.4763 20.9709 28.3509 21 28.2031 21ZM27.9304 20.8438H28.1918C28.312 20.8438 28.4117 20.8205 28.4908 20.7741C28.5698 20.7277 28.6288 20.6617 28.6676 20.576C28.7064 20.4903 28.7259 20.3883 28.7259 20.2699C28.7259 20.1525 28.7067 20.0514 28.6683 19.9666C28.63 19.8814 28.5727 19.8161 28.4964 19.7706C28.4202 19.7247 28.3253 19.7017 28.2116 19.7017H27.9304V20.8438ZM29.6264 21.0227C29.5213 21.0227 29.4306 20.9995 29.3544 20.9531C29.2786 20.9062 29.2202 20.8409 29.179 20.7571C29.1383 20.6728 29.1179 20.5748 29.1179 20.4631C29.1179 20.3513 29.1383 20.2528 29.179 20.1676C29.2202 20.0819 29.2775 20.0152 29.3509 19.9673C29.4247 19.919 29.5109 19.8949 29.6094 19.8949C29.6662 19.8949 29.7223 19.9044 29.7777 19.9233C29.8331 19.9422 29.8835 19.973 29.929 20.0156C29.9744 20.0578 30.0107 20.1136 30.0376 20.1832C30.0646 20.2528 30.0781 20.3385 30.0781 20.4403V20.5114H29.2372V20.3665H29.9077C29.9077 20.3049 29.8954 20.25 29.8707 20.2017C29.8466 20.1534 29.812 20.1153 29.767 20.0874C29.7225 20.0594 29.67 20.0455 29.6094 20.0455C29.5426 20.0455 29.4848 20.062 29.4361 20.0952C29.3878 20.1278 29.3506 20.1705 29.3246 20.223C29.2985 20.2756 29.2855 20.3319 29.2855 20.392V20.4886C29.2855 20.571 29.2997 20.6409 29.3281 20.6982C29.357 20.755 29.397 20.7983 29.4482 20.8281C29.4993 20.8575 29.5587 20.8722 29.6264 20.8722C29.6705 20.8722 29.7102 20.866 29.7457 20.8537C29.7817 20.8409 29.8127 20.822 29.8388 20.7969C29.8648 20.7713 29.8849 20.7396 29.8991 20.7017L30.0611 20.7472C30.044 20.8021 30.0154 20.8504 29.9751 20.892C29.9349 20.9332 29.8852 20.9654 29.826 20.9886C29.7668 21.0114 29.7003 21.0227 29.6264 21.0227ZM31.1919 19.9091L30.7885 21H30.6181L30.2147 19.9091H30.3965L30.6976 20.7784H30.709L31.0101 19.9091H31.1919ZM20.2017 22.4886V22.375L21.1165 21.9091V22.0909L20.4148 22.429L20.4205 22.4176V22.446L20.4148 22.4347L21.1165 22.7727V22.9545L20.2017 22.4886ZM21.986 21.4773L21.5172 23.2188H21.3638L21.8326 21.4773H21.986ZM22.3523 22.3438V23H22.1847V21.5455H22.3523V22.0795H22.3665C22.392 22.0232 22.4304 21.9785 22.4815 21.9453C22.5331 21.9117 22.6018 21.8949 22.6875 21.8949C22.7618 21.8949 22.8269 21.9098 22.8828 21.9396C22.9387 21.969 22.982 22.0142 23.0128 22.0753C23.044 22.1359 23.0597 22.2131 23.0597 22.3068V23H22.892V22.3182C22.892 22.2315 22.8696 22.1645 22.8246 22.1172C22.7801 22.0694 22.7183 22.0455 22.6392 22.0455C22.5843 22.0455 22.535 22.0571 22.4915 22.0803C22.4484 22.1035 22.4143 22.1373 22.3892 22.1818C22.3646 22.2263 22.3523 22.2803 22.3523 22.3438ZM23.7947 21.5455V23H23.6186V21.7301H23.6101L23.255 21.9659V21.7869L23.6186 21.5455H23.7947ZM25.179 22.3523L24.2642 22.8182V22.6364L24.9659 22.2983L24.9602 22.3097V22.2812L24.9659 22.2926L24.2642 21.9545V21.7727L25.179 22.2386V22.3523ZM20.2017 24.4886V24.375L21.1165 23.9091V24.0909L20.4148 24.429L20.4205 24.4176V24.446L20.4148 24.4347L21.1165 24.7727V24.9545L20.2017 24.4886ZM21.986 23.4773L21.5172 25.2188H21.3638L21.8326 23.4773H21.986ZM22.3523 24.3438V25H22.1847V23.5455H22.3523V24.0795H22.3665C22.392 24.0232 22.4304 23.9785 22.4815 23.9453C22.5331 23.9117 22.6018 23.8949 22.6875 23.8949C22.7618 23.8949 22.8269 23.9098 22.8828 23.9396C22.9387 23.969 22.982 24.0142 23.0128 24.0753C23.044 24.1359 23.0597 24.2131 23.0597 24.3068V25H22.892V24.3182C22.892 24.2315 22.8696 24.1645 22.8246 24.1172C22.7801 24.0694 22.7183 24.0455 22.6392 24.0455C22.5843 24.0455 22.535 24.0571 22.4915 24.0803C22.4484 24.1035 22.4143 24.1373 22.3892 24.1818C22.3646 24.2263 22.3523 24.2803 22.3523 24.3438ZM23.8407 23.9091V24.0511H23.2754V23.9091H23.8407ZM23.4402 23.6477H23.6078V24.6875C23.6078 24.7348 23.6146 24.7704 23.6284 24.794C23.6426 24.8172 23.6606 24.8329 23.6824 24.8409C23.7046 24.8485 23.728 24.8523 23.7527 24.8523C23.7711 24.8523 23.7863 24.8513 23.7981 24.8494C23.81 24.8471 23.8194 24.8452 23.8265 24.8438L23.8606 24.9943C23.8493 24.9986 23.8334 25.0028 23.813 25.0071C23.7927 25.0118 23.7669 25.0142 23.7356 25.0142C23.6883 25.0142 23.6419 25.004 23.5964 24.9837C23.5514 24.9633 23.514 24.9323 23.4842 24.8906C23.4548 24.849 23.4402 24.7964 23.4402 24.733V23.6477ZM24.0929 25V23.9091H24.2548V24.0795H24.269C24.2917 24.0213 24.3284 23.9761 24.3791 23.9439C24.4297 23.9112 24.4906 23.8949 24.5616 23.8949C24.6336 23.8949 24.6935 23.9112 24.7413 23.9439C24.7896 23.9761 24.8272 24.0213 24.8542 24.0795H24.8656C24.8935 24.0232 24.9354 23.9785 24.9913 23.9453C25.0472 23.9117 25.1142 23.8949 25.1923 23.8949C25.2898 23.8949 25.3696 23.9254 25.4316 23.9865C25.4937 24.0471 25.5247 24.1416 25.5247 24.2699V25H25.3571V24.2699C25.3571 24.1894 25.335 24.1319 25.291 24.0973C25.247 24.0627 25.1951 24.0455 25.1355 24.0455C25.0588 24.0455 24.9993 24.0687 24.9572 24.1151C24.9151 24.161 24.894 24.2192 24.894 24.2898V25H24.7235V24.2528C24.7235 24.1908 24.7034 24.1409 24.6632 24.103C24.6229 24.0646 24.5711 24.0455 24.5076 24.0455C24.4641 24.0455 24.4234 24.0571 24.3855 24.0803C24.3481 24.1035 24.3178 24.1357 24.2946 24.1768C24.2718 24.2176 24.2605 24.2647 24.2605 24.3182V25H24.0929ZM25.9988 23.5455V25H25.8311V23.5455H25.9988ZM27.2688 24.4886L26.354 24.9545V24.7727L27.0558 24.4347L27.0501 24.446V24.4176L27.0558 24.429L26.354 24.0909V23.9091L27.2688 24.375V24.4886Z" fill="#24331C"/>
</g>
</g>
<g id="Group 1">
<rect id="Rectangle 3" x="12" y="46.6364" width="26.4" height="7.36364" rx="1" fill="#121A0E"/>
<rect id="Rectangle 4" x="12.6" y="47.25" width="25.2" height="6.13636" rx="1" fill="#92998E"/>
</g>
</g>
</svg>
